<?xml version="1.0" encoding="utf-8"?>
<!-- Generator: Adobe Illustrator 22.1.0, SVG Export Plug-In . SVG Version: 6.00 Build 0)  -->
<svg version="1.1" id="Ebene_1" xmlns="http://www.w3.org/2000/svg" xmlns:xlink="http://www.w3.org/1999/xlink" x="0px" y="0px"
	 viewBox="0 0 474.1 243.2" style="enable-background:new 0 0 474.1 243.2;" xml:space="preserve">
<style type="text/css">
	.st0{fill:#00AF66;}
</style>
<g>
	<path class="st0" d="M474.1,243.2c-78-7.7-157.1-11.6-237.1-11.6S77.9,235.5-0.1,243.2l1.3-26.3c77.6-7.5,156.2-11.4,235.7-11.4
		s158.2,3.9,235.7,11.4L474.1,243.2z"/>
	<path class="st0" d="M203.8,123.5c-68.2-0.9-135.7-4.7-202.5-11.2L0,86.1c51.1,5,102.6,8.5,154.6,10.2c-0.9-4.7-1.3-9.6-1.3-14.6
		c0-45.2,37.5-81.8,83.8-81.8s83.8,36.6,83.8,81.8c0,5-0.5,9.8-1.3,14.6c52-1.8,103.5-5.2,154.6-10.2l-1.3,26.3
		c-66.7,6.5-134.3,10.2-202.5,11.2c11.9-9.9,19.5-24.9,19.5-41.8c0-29.7-23.6-53.8-52.7-53.8s-52.7,24.1-52.7,53.8
		C184.3,98.6,191.9,113.7,203.8,123.5z"/>
	<g>
		<polygon class="st0" points="187,168.1 167.3,135.6 155.7,135.6 155.7,193.6 167.7,193.6 167.7,159.9 188.2,193.6 199,193.6 
			199,135.6 187,135.6 		"/>
		<path class="st0" d="M134.2,174.1c0,6.6-4.1,9.9-9.2,9.9c-5.1,0-9.2-3.4-9.2-9.9v-22.7h-12.4v22.7c0,11.9,8.8,20.7,20.7,20.7
			s22.4-8.8,22.4-20.7v-22.7h-12.3V174.1z"/>
		<rect x="134.2" y="135.6" class="st0" width="12.3" height="10.6"/>
		<path class="st0" d="M97.1,154.3c0-10.6-7.5-18.6-20.3-18.6H55.7v58h12.2V173H76l9.4,20.7h14.4L88,170.1
			C93.5,167.2,97.1,161.6,97.1,154.3z M67.9,162.8v-17.1h7.3c6,0,9.5,3.6,9.5,8.6s-3.5,8.6-9.5,8.6h-7.3V162.8z"/>
		<rect x="103.4" y="135.6" class="st0" width="12.4" height="10.6"/>
		<path class="st0" d="M25.5,170.6h9.7v11.8c-2.4,1.3-5.3,1.9-8.4,1.9c-8.8,0-14.2-9.7-14.2-20S18.1,145,26.9,145
			c5.1,0,9.4,2,12.5,5.3l7-8.8c-4.9-4.4-11.5-7-19.5-7C9.5,134.5,0,147.5,0,164s9.5,30.7,26.8,30.7c9.1,0,16.4-3.9,20.6-7.2v-27.4
			H25.5C25.5,160.1,25.5,170.6,25.5,170.6z"/>
		<path class="st0" d="M418.3,135.6H410h-3.2l-20.4,58h12.4l3.8-11.2h18.9l3.8,11.2h13.6L418.3,135.6L418.3,135.6z M405.9,172.3
			l6-17.9l6,17.9H405.9z"/>
		<polygon class="st0" points="371.5,158.8 353.6,158.8 353.6,135.6 341.3,135.6 341.3,193.6 353.6,193.6 353.6,169.5 371.5,169.5 
			371.5,193.6 383.8,193.6 383.8,135.6 371.5,135.6 		"/>
		<polygon class="st0" points="453.5,182.9 453.5,135.6 441.3,135.6 441.3,193.6 472.2,193.6 472.2,182.9 		"/>
		<polygon class="st0" points="283.8,168.1 264.2,135.6 252.6,135.6 252.6,193.6 264.6,193.6 264.6,159.9 285,193.6 295.9,193.6 
			295.9,135.6 283.8,135.6 		"/>
		<polygon class="st0" points="299.5,146.3 312.2,146.3 312.2,193.6 325,193.6 325,146.3 337.7,146.3 337.7,135.6 299.5,135.6 		"/>
		<polygon class="st0" points="221,169.5 241.6,169.5 241.6,158.9 221,158.9 221,146.2 244.9,146.2 244.9,135.6 208.7,135.6 
			208.7,193.6 245.5,193.6 245.5,183 221,183 		"/>
	</g>
</g>
</svg>
